<svg width="16" height="16" viewBox="0 0 16 16" fill="none" xmlns="http://www.w3.org/2000/svg">
<g clip-path="url(#clip0_133_49)">
<path d="M9.33333 4.66665L11.3333 6.66665M3.33333 3.99998V6.66665M12.6667 9.33331V12M6.66667 1.33331V2.66665M4.66667 5.33331H2M14 10.6666H11.3333M7.33333 1.99998H6M14.4265 2.42668L13.5732 1.57334C13.4982 1.49755 13.4089 1.43739 13.3105 1.39633C13.2121 1.35527 13.1065 1.33413 12.9999 1.33413C12.8932 1.33413 12.7877 1.35527 12.6893 1.39633C12.5908 1.43739 12.5015 1.49755 12.4265 1.57334L1.5732 12.4267C1.49741 12.5017 1.43725 12.591 1.39619 12.6894C1.35513 12.7878 1.33398 12.8934 1.33398 13C1.33398 13.1066 1.35513 13.2122 1.39619 13.3106C1.43725 13.409 1.49741 13.4983 1.5732 13.5733L2.42653 14.4267C2.50108 14.5033 2.59022 14.5642 2.6887 14.6057C2.78717 14.6473 2.89298 14.6687 2.99987 14.6687C3.10676 14.6687 3.21256 14.6473 3.31104 14.6057C3.40951 14.5642 3.49865 14.5033 3.5732 14.4267L14.4265 3.57334C14.5031 3.4988 14.564 3.40965 14.6056 3.31118C14.6472 3.21271 14.6686 3.1069 14.6686 3.00001C14.6686 2.89312 14.6472 2.78731 14.6056 2.68884C14.564 2.59037 14.5031 2.50122 14.4265 2.42668Z" stroke="#5451CF" stroke-width="1.33" stroke-linecap="round" stroke-linejoin="round"/>
</g>
<defs>
<clipPath id="clip0_133_49">
<rect width="16" height="16" fill="white"/>
</clipPath>
</defs>
</svg>
